<svg xmlns="http://www.w3.org/2000/svg" viewBox="0 0 15.03 17.57"><defs><style>.cls-1{fill:#fff;opacity:0;}.cls-2{fill:#1d1d1b;}</style></defs><g id="Слой_2" data-name="Слой 2"><g id="Слой_1-2" data-name="Слой 1"><path class="cls-1" d="M11.38,2.21H3.65L0,0V15.68H0v0H.09l7.36,1.86h.13l7.35-1.86H15v0h0V0Z"/><path class="cls-2" d="M11.38,2.21H3.65L0,0V15.68H0v0H.09l7.36,1.86h.13l7.35-1.86H15v0h0V0ZM7.45,15.33.6,13.45V2.81h0V1.08L3.46,2.81h8.1l2.86-1.73V2.81h0V13.45L7.54,15.33Z"/><polygon class="cls-2" points="9.01 10.29 9 10.29 7.5 10.29 6.02 10.29 7.5 11.78 7.5 11.79 7.51 11.78 7.51 11.79 9.01 10.29"/></g></g></svg>